<?xml version="1.0" encoding="UTF-8"?><svg id="a" xmlns="http://www.w3.org/2000/svg" width="1024" height="653.48" viewBox="0 0 1024 653.48"><path d="M1018.28,252.16h-.01c-1.72-44.25,7.38-84.77-29.9-118.23-21.52-19.31-49.21-30.44-76.45-40.71C780.88,43.81,633.35-3.02,491.54.15,351.54,3.28,192.05,59.6,63.85,114.75c-11.14,4.79-22.44,9.69-31.74,17.36C-14.7,170.7,3.47,241.5,3.47,292.53v.07c0,46.99-.5,93.99-.46,140.98.07,75.18,1.6,89.88,70.09,121.54,59.21,27.37,143.3,51.67,206.85,68.51,150.08,39.77,313.03,38.55,463.99,3.87,76.79-17.64,146.75-46.19,216.83-80.92,21.92-10.86,36.13-19.73,45.35-28.75,22.71-22.23,15.04-45.34,17.34-101.32,2.26-54.84-3.05-109.59-5.18-164.35Z" fill="#fff"/><path d="M493.62,57.39h.01c1.74-4.21,20.46-4.23,23.44-4.51,8.64-.82,36.7,2.19,43.18,2.88,6.21.66,28.67,2.84,31.85,5.94,2.22,2.16.85,8.05.42,10.99-.67,4.61,1.45,6.47-1.69,10.23-4.22,5.06-16.73,1.78-22.68,1.73-15.44-.15-34.77-3.36-35.18,1.58-.22,2.69,2.19,19.56,1.65,25.59-.56,6.13-.11,6.8,6.72,7.27,10.9.74,21.77.6,32.75,1.34,6.84.46,14.25.76,20.3,2.78,2.47.82,1.81,10.88,1.23,14.96-.88,6.16.68,7.82-5.35,8.07-13.39.56-27.32-.73-40.57.23-8.32.6-13.44.45-12.9,5.94.7,6.98.55,24.54,3.36,27.58,6.52,2.18,35.13-.73,43.34-1.58,7.57-.78,15.03-1.98,22.98-1.48,6.9.43,7.86-.2,8.6,6.59.47,4.29,2.21,11.81,1.91,16.13-.63,8.89-20.05,4.89-26.04,5.5-9.91,1.02-20.55.61-30.83,1.53-12.19,1.1-24.42,1.88-36.66,2.08-3.54.06-18.46,1.92-21.64,1.44-1.75-.27-3.64-1.96-4.57-3.3-1.09-1.56-1.95-9.64-1.02-12.73,3.29-10.97,8.69-7.09,10.42-19.19,1.38-9.66-1.72-30.37-1.1-40.11.77-12.06,1.44-34.53-2.06-46.2-2.47-8.22-17.35-13.21-9.87-31.28Z" fill="#4f87c6"/><path d="M310.83,423.61l-.03.03c-.5,5.13-1.03,10.41-1.25,15.53-1.41,31.92-16.19,64.41-44.62,80.93-13.79,8.02-24.3,13.06-40.89,11.86-12.98-.94-26.38-5.17-39-8.23-15.76-3.81-30.41-8.72-45.78-13.61-6.86-2.18-13.84-3.9-20.67-6.14-1.76-.58-3.44-1.16-5.05-1.77-12.88-4.88-26.96-6.5-22-21.38,3.29-9.87,11.64-19.2,19.94-21.62,5.22-1.52,10.28-3.01,14.68-6.33,7.08-5.33,5.52-10.08,5.9-18.27.29-6.23-.2-12.49-.63-18.7-.29-4.19-.59-8.52-.65-12.69-.43-30.05-.55-59.61-.61-84.56,0-3.97-.03-7.93-.05-11.9-.1-16.88-.07-33.32,2.07-50.05,2.64-20.6-25.4-38.18-30.14-13.6-2.07,10.75,10.7,23.11-9.24,26.48-23.22,3.93-24.01-31.27-20.96-45.89,5.74-27.52,33.39-36.81,58.39-41.69,11.98-2.34,16.78-5.36,28.76-7.83,7.68-1.59,21.73-5.88,29.2-7.4,8.16-1.66,14.75-1.78,23.02-1.84,29.94-.22,55.95,14.89,73.85,38.45,9.11,12,14.21,29.43,15.88,44.34,2.07,18.44,3.87,37.03,4.09,55.59.07,5.9.98,11.21,1.86,16.34.86,5.02,1.68,9.77,1.72,14.92.06,8.16.21,16.39.35,24.35.38,21.08,3.91,43.78,1.86,64.68Z" fill="#4f87c6"/><path d="M321.65,124.45c-18.9,5.3-20.45-21.04-12.94-30.97,8.51-11.26,20.84-17.25,34.95-19.48,10.83-1.71,26.41-4.74,28.38,8.8,1.18,8.14,2.63,16.31,2.85,24.55.12,4.35.12,16.35,4.55,19.34,6.96,4.68,31.44.52,39.16-.77,3.74-.62,5.61-3.74,6.16-15.26.32-6.74.45-14-.61-20.65-.99-6.23-.69-11.83-1.04-18.16-.12-2.16-1.12-4.77-.5-7.05,1.65-6.09,9.64-5.44,15.47-5.64,3.39-.12,6.77-.48,10.04-.84,4.09-.45,4.39-1.29,6.37,2.03,2.63,4.41-.52,9.98-.22,14.67.36,5.52.54,11.02.52,16.79-.05,10.13,1.33,20.31,1.34,30.47.02,19.28-.75,32.37-1.4,54.74-.17,5.98-1.59,15.1-1.91,21.06-.17,3.11,1.21,8.35-.53,11.1-2.71,4.28-25.86,4.63-30.59,1.48-5.61-3.74.91-29.75.03-41.26-.53-6.9,1.56-15.46-2.79-15.44-7.61.02-33.82-1.1-39.07,2.53-4.28,2.96-3.05,18.5-3.25,22.77-.52,11.02,2.19,32.8-2.18,33.42-10.49,1.5-27.53,6.65-28.3-5.54-1.55-24.8.22-49.52,1.54-74.5.44-8.2,3.59-42.4-14.62-33.16-8.64,4.39-1.77,6.45-.98,12.21.69,5.06-5.61,11.41-10.45,12.76h.02Z" fill="#4f87c6"/><path d="M332.92,262.27h-.01c-4.11-7.62-4.4-21.68,2.79-23.57,75.81-13.09,142.99.37,219.68-7.14,22.68-2.22,110.56,6.51,134.86-15.29,7.88-7.07,4.98-19.32,5.61-34.89.33-8.19-17.36-35.07-26.17-47.98-7.9-11.57-18.17-24.59-28.66-34.27-8.1-7.48-23.68-16.2-13.51-28.29,4.83-5.74,18.5-12.84,25.35-5.36,9.36,10.21,21.81,18.7,29.04,29.57,5.59,8.41,13.2,16.53,17.34,25.77,2.39,5.35,10.94,12.74,13.53,13.85,8.63,3.71,20.53-46.24,35.42-50.5,8.72-2.49,26.51,6.3,27.9,11.21,2.64,9.35-17.12,37.34-25.4,48.61-10.34,14.08-18.69,24.92-19.32,31.78-2.57,28.26,6.41,65.84-28.66,79.13-20.91,7.92-38.59,1.93-60.07,2.75-20.37.78-40.79,1.7-61.62,1.25-50.16-1.07-100.36-.9-150.51.79-28.03.94-52.43,7.05-76.11,3.94-6.55-.86-19.31,2.66-21.48-1.36Z" fill="#4f87c6"/><path d="M526.08,330.98h0c-1.33,27.34-3.52,54.96-4.4,82.52-.82,25.59-.58,51.17-1.26,76.79-.32,12.16-.08,24.65-1.28,36.74-1.13,11.38-.65,23.57-6.88,33.67-9.35,15.15-23.95,20.87-40.6,22.06-10,.71-15.55,3.79-25.67,3-1.1-.08-9.92-.35-11.01-.54-10.08-1.66-23.46-6.25-33.09-9.98-26.25-10.17-36.52-40.43-39.71-52.97-7.02-27.55-6.4-57.8-5.85-84.48.43-20.78,2.63-41.83,1.66-62.66-.96-20.61-3.38-40.06-6.78-60.12-2.62-15.45,2.92-23.12,18.88-25.4,6.95-.99,19.28-1.19,24.93,3.72,4.64,4.03,5.81,12.73,6.4,18.64.86,8.58,3.26,17.04,3.6,25.72.79,20.21,1.08,40.58.64,60.97-.15,6.77-.29,13.16-.29,19.52,0,2.75-.04,5.96-.08,9.52-.36,30.76-3.88,82.24,14.36,100.69,14.58,14.76,41.49,7.73,48.15-11.11,4.16-11.76,4.22-24.84,5.63-37.14,2.45-21.44,1.41-42.38,2.38-63.89,1.23-27.26,1.81-54.97.1-82.24-.6-9.57-4.69-25.4-.48-34.28,2.47-5.21,11.41-9.91,16.87-11.34,27.1-7.09,34.8,21.8,33.79,42.59Z" fill="#4f87c6"/><path d="M726.4,549.05h0c-11.71,10.3-25.71,17.48-40.5,22.25-14.84,4.79-32.18,9.97-47.69,11.66-3.07.33-5.9.91-8.63,1.62-5.25,1.36-13.27,1.78-18.79,3.19-10.22,2.62-19.78,1.07-29.96-.67-8.97-1.53-18.72-1.53-18.17-11.33.68-12.14,5.83-24.42,14.94-32.64,4.13-3.72,7.87-4.91,9.32-10.42,1.52-5.74-.47-12.82-.96-18.6-.21-2.56-1.36-55.41-1.36-55.41-.09-20.81.22-41.63,1.25-62.42.46-9.22.67-18.62,1.83-27.78,1-7.83-1.96-23.72-5.87-31.35-2.28-4.44-12.91-14.7-15.35-20.07-3.45-7.58-6.8-21.46,1.76-25.25,12.73-5.65,30.5-2.06,44.1-2.65,15.31-.67,31.37,1.29,46.64,2.56,21.57,1.79,38.6,5.25,56.49,18.35,3.77,2.76,17.5,23.25,19.83,25.5,2.75,2.66,5.12,4.96,6.36,7.75,7.96,17.82,15.76,38.2,18.86,66.47,3.74,34.09-8.08,116.33-34.1,139.24Z" fill="#4f87c6"/><path d="M941.7,485.02v-.03c-2.9,6.83-10.04,11.53-16.95,16.08-1.27.83-2.51,1.65-3.72,2.48-11.28,7.69-23.37,11.22-36.16,14.96-7.74,2.26-15.74,4.6-23.71,7.95-14,5.88-28.08,10.61-42.37,15.35-4.6,1.52-11.57,3.33-18.13,3.53-32.42.98-10.42-37.31-.54-50.42,7.84-10.39,5.12-23.9,6.84-35.84.92-6.38.95-12.8,1.09-19.32.55-24.68-3.49-49.42-2.16-74.25,2.46-45.67-6.62-91.56-4.63-136.95.43-8.48.38-16.04-5.67-22.27-4.7-4.84-11.01-7.33-13.94-13.77-4.49-9.85-11.66-31.71-5.68-34.35,8.46-2.73,17.71-.05,26.1,1.29,10.4,1.67,20.55,2.58,30.79,5.38,19.78,5.4,38.59,13.69,57.53,21.43,13.28,5.43,28.03,6.43,41.01,12.04,9.5,4.11,5.11,17.72,2.91,25.26-2.98,10.21-5.58,17.48-12.03,18.06-7.41.66-16.44-3.2-25.17-6.95-4.76-2.04-9.26-3.97-13.66-5.27-1.95-.58-3.89-1.11-5.82-1.63-12.93-3.54-31.99-10.39-24.68,10.57.67,1.93,1.31,3.75,1.58,5.3.26,1.45.44,3.1.57,5.17.07,1.16.12,2.32.18,3.49.08,1.75.16,3.56.31,5.39,1.32,15.78,3.52,22.27,2.83,38.43-.29,6.65,1.85,22.96,2.94,27.34,1.81,7.24,14.42,2.29,20.77,2.46,10.59.28,21.17.01,31.75-.03,11.75-.05,15.98,3.67,17.07,14.58.74,7.37,3.45,23.16-2.04,29.18-3.39,3.72-21.06,1.46-29.19,1.25-9.74-.25-19.48-.62-29.21.09-11.72.86-15.51,8.11-14.42,19.46.42,4.36-2.28,44.47-2.73,55.5-.27,6.49-.68,13.04-.54,19.54.11,5.26-.7,12.89,6.6,9.3,11.92-5.86,26.39-5.26,39-9.67,4.96-1.74,9.27-2.8,13.39-4.01,4.92-1.44,10.06-2.83,14.7-4.91,3.3-1.47,7.51-4.05,10.46-.61,4.64,5.4,7.46,22.99,4.73,29.42Z" fill="#4f87c6"/><path d="M250.04,279.57h.02c-1.73-18.98-8.92-39.91-25.22-51.17-5.83-4.03-14.07-8.55-21.2-8.96-6.14-.35-12.67,1.89-18.73,2.44-5.05.46-10.27,3.04-11.22,9.35-.73,4.85,1.94,13.13,2.49,18.07,1.52,13.68,3.75,22.15,3.25,35.79-1.07,29.06-.79,58.78-.55,85.01.07,7.93.5,15.92.9,23.65.87,16.49.44,33.59-1.77,49.94-.85,6.27-4.15,12.77,1.47,17.32,8.08,6.55,26.4,6.74,36.59,8.99,11.43,2.53,25.36,7.05,30.97-6.86,4.22-10.46,5.11-22.87,6.74-33.84,1.02-6.87,2.06-13.21,2.5-20.18,1.11-17.24.75-35.06.96-52.39.21-17.08-1.36-35.5-4.79-56.32-1.13-6.87-1.78-13.97-2.41-20.84Z" fill="#fff"/><path d="M698.66,373.92h.01c-2.42-9.05-5.73-17.4-12.44-24.11-6.09-6.08-12.7-6.55-20.73-7.51-7.4-.89-34.32-11.32-33.73,2.19,0,.09,0,.18.01.27,1.41,29.89,1.35,59.06,1.31,88.86v6.97c-.08,27.24-.14,55.42,3.6,82.77.36,2.65,2.04,4.86,4.61,6.06,1.67.78,3.87,1.11,6.37,1.11,10.9,0,27.42-6.16,29.66-7.57,9.5-5.94,17.33-15.82,23.27-29.36,8.51-19.41,11.47-41.01,10.71-62.08-.73-20.28-7.46-38.18-12.65-57.6Z" fill="#fff"/></svg>